<?xml version="1.0" encoding="UTF-8"?>
<svg id="uuid-309c51fb-7558-495e-9a72-2c00b0c9dd37" data-name="Capa 2" xmlns="http://www.w3.org/2000/svg" viewBox="0 0 35 35">
  <g id="uuid-a16e5aff-aa4f-495c-aebc-439a23e7e9e0" data-name="Capa 1">
    <g>
      <path d="m17.5,35C7.85,35,0,27.15,0,17.5S7.85,0,17.5,0s17.5,7.85,17.5,17.5-7.85,17.5-17.5,17.5Zm0-31.76c-7.86,0-14.26,6.4-14.26,14.26s6.4,14.26,14.26,14.26,14.26-6.4,14.26-14.26S25.36,3.24,17.5,3.24Z" style="fill: #ffefc9; stroke-width: 0px;"/>
      <path d="m15.53,25.72c-.45,0-.88-.17-1.21-.48l-6.71-6.22c-.72-.67-.76-1.8-.1-2.52.67-.72,1.8-.76,2.52-.1l5.37,4.97,8.99-10.24c.65-.74,1.78-.81,2.52-.16.74.65.81,1.78.16,2.52l-10.2,11.62c-.32.36-.77.58-1.25.6-.03,0-.06,0-.09,0Z" style="fill: #ffefc9; stroke-width: 0px;"/>
    </g>
  </g>
</svg>