<?xml version="1.0" encoding="UTF-8"?>
<svg id="uuid-99f36740-b915-458c-b03e-47a788ea2a9f" data-name="Capa 2" xmlns="http://www.w3.org/2000/svg" viewBox="0 0 35.75 35.75">
  <g id="uuid-cdbab512-439c-4da1-bb6d-c5a1e020f618" data-name="Capa 1">
    <g>
      <path d="m17.88,35.75C8.02,35.75,0,27.73,0,17.88S8.02,0,17.88,0s17.88,8.02,17.88,17.88-8.02,17.88-17.88,17.88Zm0-32.44c-8.03,0-14.57,6.53-14.57,14.57s6.53,14.57,14.57,14.57,14.57-6.53,14.57-14.57S25.91,3.31,17.88,3.31Z" style="fill: #ffefc9; stroke-width: 0px;"/>
      <path d="m8.18,30.28c-.69,0-1.39-.26-1.91-.79-1.06-1.06-1.06-2.77,0-3.83L25.47,6.46c1.06-1.06,2.77-1.06,3.83,0,1.06,1.06,1.06,2.77,0,3.83L10.1,29.49c-.53.53-1.22.79-1.91.79Z" style="fill: #ffefc9; stroke-width: 0px;"/>
    </g>
  </g>
</svg>