<?xml version="1.0" encoding="UTF-8"?>
<svg id="uuid-373f4521-ce7c-438a-b1db-194c01f3bdb9" data-name="Capa 2" xmlns="http://www.w3.org/2000/svg" viewBox="0 0 32.16 25.14">
  <g id="uuid-8e4f9775-47bb-4b49-86b8-745fe8d78e67" data-name="Capa 1">
    <g>
      <path d="m16.03,25.14c-4.6,0-9.21,0-13.81,0-1.26,0-2.09-.67-2.2-1.75-.12-1.09.61-2.02,1.69-2.18.14-.02.28-.02.42-.02,9.29,0,18.58,0,27.87,0,.63,0,1.19.16,1.63.63,1.05,1.13.51,2.9-1,3.24-.29.07-.59.07-.89.07-4.56,0-9.13,0-13.69,0Z" style="stroke-width: 0px;"/>
      <path d="m16.03,14.54c-4.6,0-9.21,0-13.81,0-1.26,0-2.09-.67-2.2-1.75-.12-1.09.61-2.02,1.69-2.18.14-.02.28-.02.42-.02,9.29,0,18.58,0,27.87,0,.63,0,1.19.16,1.63.63,1.05,1.13.51,2.9-1,3.24-.29.07-.59.07-.89.07-4.56,0-9.13,0-13.69,0Z" style="stroke-width: 0px;"/>
      <path d="m16.03,3.95c-4.6,0-9.21,0-13.81,0-1.26,0-2.09-.67-2.2-1.75C-.1,1.11.62.18,1.7.03c.14-.02.28-.02.42-.02C11.41,0,20.7,0,29.99,0c.63,0,1.19.16,1.63.63,1.05,1.13.51,2.9-1,3.24-.29.07-.59.07-.89.07-4.56,0-9.13,0-13.69,0Z" style="stroke-width: 0px;"/>
    </g>
  </g>
</svg>