<?xml version="1.0" encoding="UTF-8"?>
<svg id="uuid-78de462e-10d0-4126-aff2-63d9e8f378a3" data-name="Capa 1" xmlns="http://www.w3.org/2000/svg" viewBox="0 0 166.72 166.72">
  <path id="uuid-f118bb66-bbaa-4012-a086-d1c7f9460bbc" data-name="Icon" d="m142.31,24.42C126.56,8.67,105.63,0,83.36,0S40.16,8.67,24.42,24.42C8.67,40.16,0,61.09,0,83.36s8.67,43.2,24.42,58.95c15.74,15.74,36.68,24.42,58.95,24.42s43.2-8.67,58.95-24.42c15.74-15.74,24.42-36.68,24.42-58.95s-8.67-43.2-24.42-58.95Zm-58.95,137.76c-43.46,0-78.82-35.36-78.82-78.82S39.9,4.54,83.36,4.54s78.82,35.36,78.82,78.82-35.36,78.82-78.82,78.82Zm36.86-88.79l-49.64-24.82c-3.09-1.55-6.7-1.39-9.64.43-2.94,1.82-4.7,4.97-4.7,8.43v49.64c0,3.46,1.76,6.61,4.7,8.43,1.6.99,3.4,1.49,5.2,1.49,1.51,0,3.03-.35,4.44-1.06l49.64-24.82c3.38-1.69,5.48-5.08,5.48-8.86s-2.1-7.17-5.48-8.86Zm-2.3,13.13l-49.64,24.82c-1.51.76-3.2.68-4.64-.21-1.44-.89-2.26-2.37-2.26-4.06v-49.64c0-1.69.82-3.17,2.26-4.06.78-.48,1.64-.73,2.5-.73.72,0,1.45.17,2.14.52l49.64,24.82h0c1.65.83,2.64,2.42,2.64,4.27s-.99,3.44-2.64,4.27Zm-51.23,28.27l16.67-8.34,16.67-8.34,16.67-8.34s7.71-1.48,3.85-13.24l-53.87-28.44c-2.73,1.51-6.32,4.08-8.34,8.34-2.95,6.21-.97,12.65,0,16.67,1.75,7.28,2.96,18.17,0,33.34l8.34,8.34Z" style="fill: #fdefd1; stroke-width: 0px;"/>
</svg>