<?xml version="1.0" encoding="UTF-8"?>
<svg id="uuid-d121a13f-e18a-446f-9c39-04952269a9dc" data-name="Capa 1" xmlns="http://www.w3.org/2000/svg" xmlns:xlink="http://www.w3.org/1999/xlink" viewBox="0 0 287.97 39.93">

  <defs>
    <filter id="uuid-6c065fea-0329-4fae-822d-e98ac8e9407f" data-name="drop-shadow-2" filterUnits="userSpaceOnUse">
      <feOffset dx="0" dy="0"/>
      <feGaussianBlur result="uuid-ad60b180-3759-457b-8fee-3455a37f7a71" stdDeviation="40"/>
      <feFlood flood-color="#003c71" flood-opacity=".35"/>
      <feComposite in2="uuid-ad60b180-3759-457b-8fee-3455a37f7a71" operator="in"/>
      <feComposite in="SourceGraphic"/>
    </filter>
  </defs>
  <g style="filter: url(#uuid-6c065fea-0329-4fae-822d-e98ac8e9407f);">
    <g>
      <rect x="3.66" y="37.56" width="280.66" height=".22" style="fill: #fff0ce; stroke-width: 0px;"/>
      <rect x="3.66" y="39.71" width="280.66" height=".22" style="fill: #fff0ce; stroke-width: 0px;"/>
      <rect x="3.66" y="2.16" width="280.66" height=".22" style="fill: #fff0ce; stroke-width: 0px;"/>
      <rect x="3.66" width="280.66" height=".22" style="fill: #fff0ce; stroke-width: 0px;"/>
    </g>
    <polygon points="284.35 16.52 285.2 19.15 287.97 19.15 285.73 20.78 286.59 23.41 284.35 21.78 282.1 23.41 282.97 20.78 280.72 19.15 283.49 19.15 284.35 16.52" style="fill: #fff0ce; fill-rule: evenodd; stroke-width: 0px;"/>
    <polygon points="3.63 16.52 4.48 19.15 7.25 19.15 5.01 20.78 5.87 23.41 3.63 21.78 1.39 23.41 2.25 20.78 0 19.15 2.77 19.15 3.63 16.52" style="fill: #fff0ce; fill-rule: evenodd; stroke-width: 0px;"/>
    <path d="m21.71,9.99c-2.85,0-4.56,1.83-4.56,4.89v10.34c0,3.06,1.7,4.89,4.56,4.89s4.56-1.83,4.56-4.89v-10.34c0-3.06-1.7-4.89-4.56-4.89Zm-1.88,4.92c0-1.5.69-2.37,1.88-2.37s1.88.86,1.88,2.37v10.28c0,1.5-.69,2.37-1.88,2.37s-1.88-.86-1.88-2.37v-10.28Z" style="fill: #fff0ce; stroke-width: 0px;"/>
    <path d="m41.52,10.27h-4.07v19.56h2.68v-8.19h1.39c3.07,0,4.7-1.69,4.7-4.89v-1.58c0-3.2-1.62-4.89-4.7-4.89Zm-1.39,2.55h1.28c1.45,0,2.13.81,2.13,2.54v1.19c0,1.73-.68,2.54-2.13,2.54h-1.28v-6.26Z" style="fill: #fff0ce; stroke-width: 0px;"/>
    <polygon points="56.71 29.83 64.63 29.83 64.63 27.28 59.39 27.28 59.39 21.19 63.62 21.19 63.62 18.63 59.39 18.63 59.39 12.83 64.63 12.83 64.63 10.27 56.71 10.27 56.71 29.83" style="fill: #fff0ce; stroke-width: 0px;"/>
    <path d="m81.96,20.84c1.32-.78,1.99-2.22,1.99-4.26v-1.41c0-3.2-1.62-4.89-4.7-4.89h-4.07v19.56h2.68v-8.36h1.53l2.29,8.36h2.83l-2.63-8.95.07-.04Zm-4.09-8.01h1.28c1.45,0,2.13.81,2.13,2.54v1.02c0,1.73-.68,2.54-2.13,2.54h-1.28v-6.09Z" style="fill: #fff0ce; stroke-width: 0px;"/>
    <path d="m118.41,9.99c-2.76,0-4.34,1.69-4.34,4.64v10.85c0,2.95,1.58,4.64,4.34,4.64s4.39-1.69,4.39-4.64v-2.27l-2.57-.13v2.09c0,1.61-.57,2.4-1.74,2.4-1.11,0-1.75-.77-1.75-2.11v-10.79c0-1.34.64-2.11,1.75-2.11,1.17,0,1.74.78,1.74,2.4v1.5l2.57-.13v-1.68c0-2.95-1.6-4.64-4.39-4.64Z" style="fill: #fff0ce; stroke-width: 0px;"/>
    <rect x="133.64" y="10.27" width="2.68" height="19.56" style="fill: #fff0ce; stroke-width: 0px;"/>
    <path d="m152.06,9.99c-2.85,0-4.56,1.83-4.56,4.89v10.34c0,3.06,1.7,4.89,4.56,4.89s4.56-1.83,4.56-4.89v-10.34c0-3.06-1.7-4.89-4.56-4.89Zm-1.88,4.92c0-1.5.69-2.37,1.88-2.37s1.88.86,1.88,2.37v10.28c0,1.5-.69,2.37-1.88,2.37s-1.88-.86-1.88-2.37v-10.28Z" style="fill: #fff0ce; stroke-width: 0px;"/>
    <polygon points="154.95 6.04 152.31 6.04 150.84 8.93 152.74 8.93 154.95 6.04" style="fill: #fff0ce; stroke-width: 0px;"/>
    <polygon points="247.56 17.28 247.35 17.28 244.92 10.27 242.1 10.27 246.06 20.97 246.06 29.83 248.74 29.83 248.74 20.99 252.65 10.27 249.88 10.27 247.56 17.28" style="fill: #fff0ce; stroke-width: 0px;"/>
    <path d="m266.28,9.99c-2.85,0-4.56,1.83-4.56,4.89v10.34c0,3.06,1.7,4.89,4.56,4.89s4.56-1.83,4.56-4.89v-10.34c0-3.06-1.7-4.89-4.56-4.89Zm-1.88,4.92c0-1.5.69-2.37,1.88-2.37s1.88.86,1.88,2.37v10.28c0,1.5-.69,2.37-1.88,2.37s-1.88-.86-1.88-2.37v-10.28Z" style="fill: #fff0ce; stroke-width: 0px;"/>
    <path d="m97.27,10.27l-3.27,19.56h2.67l.63-4.49h3.38l.63,4.49h2.73l-3.27-19.56h-3.5Zm1.72,2.96l1.34,9.61h-2.68l1.34-9.61Z" style="fill: #fff0ce; stroke-width: 0px;"/>
    <polygon points="174.49 23.26 170.92 10.58 170.83 10.27 167.8 10.27 167.8 29.83 170.28 29.83 170.28 15.82 170.52 16.65 170.56 16.72 174.35 29.83 177 29.83 177 10.27 174.49 10.27 174.49 23.26" style="fill: #fff0ce; stroke-width: 0px;"/>
    <polygon points="207.92 20.89 207.69 20.89 205.43 10.27 201.83 10.27 201.83 29.83 204.34 29.83 204.34 15.13 204.57 16.1 204.59 16.1 206.99 27.01 208.54 27.01 210.47 18.21 210.47 18.21 210.56 17.82 210.94 16.1 210.96 16.1 211.18 15.13 211.18 16 211.19 16.1 211.19 29.83 213.86 29.83 213.86 10.27 210.16 10.27 207.92 20.89" style="fill: #fff0ce; stroke-width: 0px;"/>
    <path d="m231.1,10.27h-3.5l-3.27,19.56h2.67l.63-4.49h3.38l.63,4.49h2.73l-3.27-19.56Zm-3.12,12.57l1.04-7.37h0s.17-1.18.17-1.18h0l.12-.83.12.83h.01l1.2,8.55h-2.68Z" style="fill: #fff0ce; stroke-width: 0px;"/>
  </g>
</svg>