<?xml version="1.0" encoding="UTF-8"?>
<svg id="uuid-6b876f76-2f5b-40d6-b92a-43bf0ff0a60f" data-name="Capa 2" xmlns="http://www.w3.org/2000/svg" viewBox="0 0 35.7 35.75">
  <g id="uuid-903ee0fd-596e-49c9-acae-55867df08493" data-name="Capa 1">
    <g>
      <path d="m17.88,35.75C8.02,35.75,0,27.73,0,17.88S8.02,0,17.88,0c.91,0,1.66.74,1.66,1.66s-.74,1.66-1.66,1.66c-8.03,0-14.57,6.53-14.57,14.57s6.53,14.57,14.57,14.57c5.01,0,9.6-2.53,12.3-6.76.49-.77,1.51-1,2.29-.51.77.49,1,1.51.51,2.29-3.3,5.19-8.95,8.29-15.09,8.29Z" style="fill: #ffefc9; stroke-width: 0px;"/>
      <path d="m33.8,22.65c-.11,0-.21,0-.32-.03-.9-.17-1.48-1.04-1.31-1.94.1-.51.17-1.03.22-1.54.08-.91.88-1.58,1.79-1.51.91.08,1.59.88,1.51,1.79-.05.63-.14,1.27-.26,1.9-.15.79-.85,1.34-1.62,1.34Zm-.15-6.89c-.75,0-1.43-.51-1.61-1.27-.12-.5-.27-1.01-.44-1.49-.31-.86.14-1.81,1-2.11.86-.31,1.81.14,2.11,1,.21.6.4,1.22.54,1.83.21.89-.34,1.78-1.23,1.99-.13.03-.26.05-.39.05Zm-2.99-6.21c-.49,0-.98-.22-1.3-.63-.32-.41-.67-.81-1.03-1.18-.64-.66-.62-1.7.03-2.34.66-.64,1.7-.62,2.34.03.44.45.86.94,1.26,1.44.56.72.44,1.76-.28,2.32-.3.24-.66.35-1.02.35Zm-5.3-4.41c-.26,0-.52-.06-.76-.19-.46-.24-.93-.46-1.42-.64-.85-.33-1.27-1.29-.94-2.14.33-.85,1.29-1.27,2.14-.94.59.23,1.18.5,1.74.79.81.42,1.13,1.42.7,2.23-.3.57-.87.89-1.47.89Z" style="fill: #ffefc9; stroke-width: 0px;"/>
      <path d="m17.55,20.59c-.91,0-1.66-.74-1.66-1.66V7.84c0-.91.74-1.66,1.66-1.66s1.66.74,1.66,1.66v11.09c0,.91-.74,1.66-1.66,1.66Z" style="fill: #ffefc9; stroke-width: 0px;"/>
    </g>
  </g>
</svg>