<?xml version="1.0" encoding="UTF-8"?>
<svg id="uuid-b94b7370-a414-472d-b3fb-f15dfb39e5fe" data-name="Capa 2" xmlns="http://www.w3.org/2000/svg" viewBox="0 0 35.75 35.75">
  <g id="uuid-1671d0a9-3b7d-4d92-8a93-2be5bbe3d435" data-name="Capa 1">
    <g>
      <path d="m17.88,35.75C8.02,35.75,0,27.73,0,17.88S8.02,0,17.88,0s17.88,8.02,17.88,17.88-8.02,17.88-17.88,17.88Zm0-32.44c-8.03,0-14.57,6.53-14.57,14.57s6.53,14.57,14.57,14.57,14.57-6.53,14.57-14.57S25.91,3.31,17.88,3.31Z" style="fill: #ffefc9; stroke-width: 0px;"/>
      <path d="m11.42,26.15c-.47,0-.93-.18-1.29-.53-.71-.71-.71-1.86,0-2.57l12.91-12.91c.71-.71,1.86-.71,2.57,0,.71.71.71,1.86,0,2.57l-12.91,12.91c-.36.36-.82.53-1.29.53Z" style="fill: #ffefc9; stroke-width: 0px;"/>
      <path d="m24.33,26.15c-.47,0-.93-.18-1.29-.53l-12.91-12.91c-.71-.71-.71-1.86,0-2.57.71-.71,1.86-.71,2.57,0l12.91,12.91c.71.71.71,1.86,0,2.57-.36.36-.82.53-1.29.53Z" style="fill: #ffefc9; stroke-width: 0px;"/>
    </g>
  </g>
</svg>