<?xml version="1.0" encoding="UTF-8"?>
<svg id="uuid-51a34a4e-9304-4144-a20e-de5147844d5f" data-name="Capa 1" xmlns="http://www.w3.org/2000/svg" viewBox="0 0 50 50"> 
  <path d="m25,31.34h0c-4.62,0-8.36-3.74-8.36-8.36v-14.46C16.64,3.9,20.38.16,25,.16h0c4.62,0,8.36,3.74,8.36,8.36v14.46c0,4.62-3.74,8.36-8.36,8.36Z" style="fill:#fff; stroke-width: 0px;"/>
  <path d="m38.19,19.58c-.86,0-1.55.69-1.55,1.55v1.85c0,6.61-5.53,11.95-12.2,11.63-6.27-.3-11.08-5.72-11.08-12v-1.48c0-.85-.69-1.55-1.55-1.55s-1.55.69-1.55,1.55v1.4c0,7.84,5.75,14.31,13.21,15.1,0,.03-.02.06-.02.1v10.57c0,.86.69,1.55,1.55,1.55h0c.86,0,1.55-.69,1.55-1.55v-10.57s-.02-.06-.02-.09c7.41-.77,13.2-7.04,13.2-14.65v-1.85c0-.85-.69-1.55-1.55-1.55Z" style="fill:#fff; stroke-width: 0px;"/>
</svg>