<?xml version="1.0" encoding="UTF-8"?>
<svg id="uuid-9f7f05f8-d037-4afd-b85d-219a8f8f5aa4" data-name="Capa 2" xmlns="http://www.w3.org/2000/svg" viewBox="0 0 45.66 45.66">
  <g id="uuid-49bb06c8-565b-4913-944b-3232ec994e92" data-name="Capa 6">
    <g>
      <path d="m10.02,0h25.62c5.53,0,10.02,4.49,10.02,10.02v25.61c0,5.53-4.49,10.03-10.03,10.03H10.02c-5.53,0-10.02-4.49-10.02-10.02V10.02C0,4.49,4.49,0,10.02,0Z" style="fill: #fff2d3; opacity: .91; stroke-width: 0px;"/>
      <g>
        <path d="m37.23,16.64c-.78-1.85-1.9-3.52-3.33-4.94-1.43-1.43-3.09-2.55-4.94-3.33-1.92-.81-3.95-1.22-6.05-1.22s-4.14.41-6.05,1.22c-1.85.78-3.52,1.9-4.94,3.33-1.43,1.43-2.55,3.09-3.33,4.94-.81,1.92-1.22,3.95-1.22,6.05s.41,4.14,1.22,6.05c.25.59.53,1.16.85,1.7l-2.21,8.07,8.26-2.17c.45.24.91.47,1.38.67,1.92.81,3.95,1.22,6.05,1.22s4.14-.41,6.05-1.22c1.85-.78,3.52-1.9,4.94-3.33,1.43-1.43,2.55-3.09,3.33-4.94.81-1.92,1.22-3.95,1.22-6.05s-.41-4.14-1.22-6.05Zm-14.33,18.96c-1.8,0-3.52-.37-5.08-1.04-.68-.29-1.33-.64-1.94-1.04l-3.25.85-1.66.44.45-1.63.86-3.16c-.41-.59-.77-1.22-1.08-1.88-.77-1.66-1.21-3.5-1.21-5.45,0-7.12,5.79-12.91,12.91-12.91s12.91,5.79,12.91,12.91-5.79,12.91-12.91,12.91Z" style="fill: #002433; stroke-width: 0px;"/>
        <path d="m30.51,26.2c-.74-.39-3.02-1.46-3.02-1.46-.65-.3-.83-.14-1.04.13l-1.21,1.52c-.16.21-.44.28-.68.17-.79-.36-2.18-.87-3.51-2.19-.87-.87-1.58-1.82-1.93-2.45-.25-.45-.12-.56.22-.9.14-.14.51-.58.65-.8.23-.38.46-.6.22-1.16l-1.28-3.08c-.12-.28-.33-.47-.64-.47-.29,0-.66-.01-.96,0-.2,0-.48.11-.65.22-.28.19-1.62,1.35-1.67,3.25-.02.83.17,1.73.55,2.57.81,1.78,2.74,3.9,3.87,5.01,2.27,2.24,5.29,3.27,6.78,3.55,1.3.24,2.84-.1,3.95-1.29.09-.09.17-.22.24-.32.19-.31.4-1.28.42-1.76,0-.23-.08-.42-.28-.53Z" style="fill: #002433; stroke-width: 0px;"/>
      </g>
    </g>
  </g>
</svg>