<?xml version="1.0" encoding="UTF-8"?>
<svg id="uuid-1820ef8c-e06a-4ba4-99bb-b6b902a92245" data-name="Capa 2" xmlns="http://www.w3.org/2000/svg" viewBox="0 0 45.66 45.66">
  <g id="uuid-ae8199f1-8ae9-48a4-be76-d671c7ce96b2" data-name="Capa 5">
    <g>
      <g style="opacity: .91;">
        <path d="m10.02,0h25.62c5.53,0,10.02,4.49,10.02,10.02v25.61c0,5.53-4.49,10.03-10.03,10.03H10.02c-5.53,0-10.02-4.49-10.02-10.02V10.02C0,4.49,4.49,0,10.02,0Z" style="fill: #fff2d3; stroke-width: 0px;"/>
      </g>
      <path d="m25.61,20.88l10.88-11.66h-2.66l-9.4,10.08-7.52-10.08h-8.37l11.24,15.06-11.34,12.17h2.66l9.86-10.58,7.9,10.58h8.36l-11.62-15.56Zm-3.29,3.54l-1.18-1.59-8.71-11.67h3.51l7.15,9.58,1.18,1.58,9.09,12.17h-3.51l-7.52-10.08Z" style="fill: #002433; stroke-width: 0px;"/>
    </g>
  </g>
</svg>